<svg xmlns="http://www.w3.org/2000/svg" xmlns:xlink="http://www.w3.org/1999/xlink" version="1.1" id="Layer_1" x="0" y="0" width="512" height="512" viewBox="0 0 512 512" preserveAspectRatio="xMidYMid meet" enable-background="new 0 0 512 512" xml:space="preserve">
  <path class="logo-path" d="M292.14 121.65c-10.57-6-22.57-9.01-36.02-9.01 -8.16 0-18.65 1.52-31.46 4.56v135.43c8.48 1.6 16.01 2.8 22.57 3.6 6.56 0.8 12.16 1.2 16.81 1.2 16.65 0 31.01-6.44 43.1-19.33 12.09-12.88 18.13-29.57 18.13-50.07 0-14.08-2.88-27.17-8.64-39.26C310.87 136.7 302.7 127.65 292.14 121.65z"/>
  <path class="logo-path" d="M460.16 14.04H51.85c-20.88 0-37.81 16.93-37.81 37.81v408.31c0 20.88 16.93 37.81 37.81 37.81h408.31c20.88 0 37.81-16.93 37.81-37.81V51.85C497.96 30.97 481.04 14.04 460.16 14.04zM353.73 248.08c-17.53 16.65-42.3 24.97-74.32 24.97 -7.85 0-16.33-0.56-25.45-1.68 -9.12-1.12-18.89-2.8-29.29-5.04v94.85c0 20.49 2.24 33.22 6.72 38.18 6.08 7.05 15.29 10.57 27.61 10.57h12.49v8.89H131.98v-8.88h12.25c13.77 0 23.61-4.48 29.54-13.45 3.2-4.96 4.8-16.73 4.8-35.3v-210.35c0-20.49-2.16-33.22-6.48-38.18 -6.24-7.04-15.53-10.57-27.85-10.57h-12.25v-8.88h119.34c29.13 0 52.11 3 68.92 9.01 16.81 6 30.98 16.13 42.5 30.38 11.53 14.25 17.29 31.14 17.29 50.67C380.03 209.82 371.26 231.43 353.73 248.08z"/>
</svg>