<svg version="1.1" id="Layer_1" xmlns="http://www.w3.org/2000/svg" xmlns:xlink="http://www.w3.org/1999/xlink" x="0" y="0" width="50" height="50" viewBox="0 0 50 50" enable-background="new 0 0 50 50" xml:space="preserve" preserveAspectRatio="xMidYMid meet"><g><g><g><path class="logo-path" d="M47.337,44.12c0,0.55-0.45,1-1,1H3.663c-0.55,0-1-0.45-1-1v-0.96c0-0.55,0.45-1,1-1h42.673c0.55,0,1,0.45,1,1V44.12z"/></g><g><path class="logo-path" d="M30.853,20.72c0-0.55-0.45-1-1-1h-9.707c-0.55,0-1,0.45-1,1v19.61c0,0.55,0.45,1,1,1h9.707c0.55,0,1-0.45,1-1V20.72z"/></g><g><path class="logo-path" d="M25.865,5.382c-0.476-0.276-1.254-0.276-1.73,0L4.529,16.758c-0.476,0.276-0.415,0.502,0.135,0.502H6.62 c0.55,0,1,0.45,1,1v22.32c0,0.55,0.45,1,1,1h6.96c0.55,0,1-0.45,1-1V18.26c0-0.55,0.45-1,1-1h14.84c0.55,0,1,0.45,1,1v22.32 c0,0.55,0.45,1,1,1h6.96c0.55,0,1-0.45,1-1V18.26c0-0.55,0.45-1,1-1h1.956c0.55,0,0.611-0.226,0.135-0.502L25.865,5.382z"/></g></g></g></svg>
