<svg xmlns="http://www.w3.org/2000/svg" xmlns:xlink="http://www.w3.org/1999/xlink" version="1.1" x="0px" y="0px" width="43.44px" height="39.36px" viewBox="0 0 43.44 39.36" enable-background="new 0 0 43.44 39.36" xml:space="preserve"><g><g><path d="M41.72 36.34c0 0.55-0.45 1-1 1h-38c-0.55 0-1-0.45-1-1v-1c0-0.55 0.45-1 1-1h38c0.55 0 1 0.5 1 1V36.34z " class="style0"/></g><g><path d="M39.22 32.86c0 0.55-0.45 1-1 1h-33c-0.55 0-1-0.45-1-1l0 0c0-0.55 0.45-1 1-1h33 C38.77 31.9 39.2 32.3 39.2 32.86L39.22 32.86z" class="style0"/></g><g><path d="M37.7 30.42c0 0.55-0.45 1-1 1h-3c-0.55 0-1-0.45-1-1v-15c0-0.55 0.45-1 1-1h3c0.55 0 1 0.5 1 1V30.42z" class="style0"/></g><g><path d="M38.7 13.46c0 0.275-0.45 0.5-1 0.5h-5c-0.55 0-1-0.225-1-0.5s0.45-0.5 1-0.5h5 C38.25 13 38.7 13.2 38.7 13.46z" class="style0"/></g><g><path d="M28.7 30.42c0 0.55-0.45 1-1 1h-3c-0.55 0-1-0.45-1-1v-15c0-0.55 0.45-1 1-1h3c0.55 0 1 0.5 1 1V30.42z" class="style0"/></g><g><path d="M29.7 13.46c0 0.275-0.45 0.5-1 0.5h-5c-0.55 0-1-0.225-1-0.5s0.45-0.5 1-0.5h5 C29.25 13 29.7 13.2 29.7 13.46z" class="style0"/></g><g><path d="M19.7 30.42c0 0.55-0.45 1-1 1h-3c-0.55 0-1-0.45-1-1v-15c0-0.55 0.45-1 1-1h3c0.55 0 1 0.5 1 1V30.42z" class="style0"/></g><g><path d="M20.7 13.46c0 0.275-0.45 0.5-1 0.5h-5c-0.55 0-1-0.225-1-0.5s0.45-0.5 1-0.5h5 C20.25 13 20.7 13.2 20.7 13.46z" class="style0"/></g><g><path d="M10.7 30.42c0 0.55-0.45 1-1 1h-3c-0.55 0-1-0.45-1-1v-15c0-0.55 0.45-1 1-1h3c0.55 0 1 0.5 1 1V30.42z" class="style0"/></g><g><path d="M11.7 13.46c0 0.275-0.45 0.5-1 0.5h-5c-0.55 0-1-0.225-1-0.5s0.45-0.5 1-0.5h5 C11.25 13 11.7 13.2 11.7 13.46z" class="style0"/></g><g><path d="M2.72 10.02c-0.55 0-0.582-0.167-0.072-0.371l18.143-7.257c0.511-0.204 1.346-0.204 1.9 0l18.143 7.3 c0.511 0.2 0.5 0.371-0.072 0.371H2.72z" class="style0"/></g><g><path d="M39.22 11.46c0 0.55-0.45 1-1 1h-33c-0.55 0-1-0.45-1-1l0 0c0-0.55 0.45-1 1-1h33 C38.77 10.5 39.2 10.9 39.2 11.46L39.22 11.46z" class="style0"/></g></g></svg>